# xmcd CD database file
#
# Track frame offsets:
#	150
#	12604
#	25441
#	38630
#	49426
#	67798
#	81037
#	96586
#	114743
#	133666
#	154813
#	171170
#	191481
#	206670
#	216881
#	231721
#	248503
#	262660
#	273753
#	289614
#	310429
#
# Disc length: 4298 seconds
#
# Revision: 0
# Processed by: cddbd v1.5.2PL0 Copyright (c) Steve Scherf et al.
# Submitted via: CDex 1.70beta1
#
DISCID=3310c815
DTITLE=Acker Bilk - Vintage Acker Bilk
DYEAR=1900
DGENRE=Jazz
TTITLE0=All The Girls Go Crazy
TTITLE1=East Coast Trot
TTITLE2=Franklin Street Blues
TTITLE3=Over The Rainbow
TTITLE4=Salutation March
TTITLE5=Travelling Blues
TTITLE6=Breeze
TTITLE7=The Old Rugged Cross
TTITLE8=Bye And Bye
TTITLE9=Dauphine Street Blues
TTITLE10=Trouble In Mind
TTITLE11=Corrine, Corrina
TTITLE12=Over In The Gloryland
TTITLE13=Gladiolus Rag
TTITLE14=Goodnight Sweet Prince
TTITLE15=Careless Love
TTITLE16=St. Louis Blues
TTITLE17=St. Philip's Street Breakdown
TTITLE18=Our Monday Date
TTITLE19=Darkness On The Delta
TTITLE20=King Joe
EXTD=
EXTT0=
EXTT1=
EXTT2=
EXTT3=
EXTT4=
EXTT5=
EXTT6=
EXTT7=
EXTT8=
EXTT9=
EXTT10=
EXTT11=
EXTT12=
EXTT13=
EXTT14=
EXTT15=
EXTT16=
EXTT17=
EXTT18=
EXTT19=
EXTT20=
PLAYORDER=
